name Walk7.mot
datacolumns 19
datarows 20
range 2.08100000 2.10000000
endheader

                time	   L_ground_force_vx	   L_ground_force_vy	   L_ground_force_vz	   L_ground_force_px	   L_ground_force_py	   L_ground_force_pz	   R_ground_force_vx	   R_ground_force_vy	   R_ground_force_vz	   R_ground_force_px	   R_ground_force_py	   R_ground_force_pz	   L_ground_torque_x	   L_ground_torque_y	   L_ground_torque_z	   R_ground_torque_x	   R_ground_torque_y	   R_ground_torque_z	
          2.08100000	         -0.00714297	          0.00758256	          0.00013948	         -0.00004807	          0.00000000	         -0.00003866	        -32.84481346	        836.71123785	        -52.60645122	          0.53014784	          0.00000000	          0.12756888	          0.00000000	          0.00007196	          0.00000000	          0.00000000	          2.13505275	          0.00000000	
          2.08200000	         -0.00756412	          0.00535501	          0.00026741	         -0.00004475	          0.00000000	         -0.00003628	        -32.37366818	        834.37068457	        -52.34573667	          0.53042177	          0.00000000	          0.12766126	          0.00000000	          0.00006524	          0.00000000	          0.00000000	          2.06627523	          0.00000000	
          2.08300000	         -0.00792087	          0.00329663	          0.00038345	         -0.00004154	          0.00000000	         -0.00003395	        -31.90764016	        832.07496948	        -52.08626965	          0.53069301	          0.00000000	          0.12775235	          0.00000000	          0.00005884	          0.00000000	          0.00000000	          1.99815488	          0.00000000	
          2.08400000	         -0.00821735	          0.00140080	          0.00048818	         -0.00003845	          0.00000000	         -0.00003170	        -31.44661433	        829.82443181	        -51.82842536	          0.53096156	          0.00000000	          0.12784219	          0.00000000	          0.00005276	          0.00000000	          0.00000000	          1.93066634	          0.00000000	
          2.08500000	         -0.00845758	         -0.00033913	          0.00058216	         -0.00003548	          0.00000000	         -0.00002952	        -30.99047411	        827.61939252	        -51.57256318	          0.53122746	          0.00000000	          0.12793078	          0.00000000	          0.00004699	          0.00000000	          0.00000000	          1.86378382	          0.00000000	
          2.08600000	         -0.00864542	         -0.00192984	          0.00066595	         -0.00003262	          0.00000000	         -0.00002742	        -30.53910181	        825.46015589	        -51.31902693	          0.53149073	          0.00000000	          0.12801814	          0.00000000	          0.00004154	          0.00000000	          0.00000000	          1.79748109	          0.00000000	
          2.08700000	         -0.00878463	         -0.00337802	          0.00074010	         -0.00002989	          0.00000000	         -0.00002539	        -30.09237913	        823.34701121	        -51.06814557	          0.53175138	          0.00000000	          0.12810427	          0.00000000	          0.00003640	          0.00000000	          0.00000000	          1.73173155	          0.00000000	
          2.08800000	         -0.00887880	         -0.00469029	          0.00080515	         -0.00002727	          0.00000000	         -0.00002343	        -29.65018770	        821.28023385	        -50.82023407	          0.53200945	          0.00000000	          0.12818919	          0.00000000	          0.00003156	          0.00000000	          0.00000000	          1.66650830	          0.00000000	
          2.08900000	         -0.00893141	         -0.00587327	          0.00086162	         -0.00002477	          0.00000000	         -0.00002156	        -29.21240957	        819.26008514	        -50.57559417	          0.53226496	          0.00000000	          0.12827292	          0.00000000	          0.00002701	          0.00000000	          0.00000000	          1.60178429	          0.00000000	
          2.09000000	         -0.00894580	         -0.00693347	          0.00091004	         -0.00002240	          0.00000000	         -0.00001976	        -28.77892784	        817.28681078	        -50.33451493	          0.53251794	          0.00000000	          0.12835546	          0.00000000	          0.00002274	          0.00000000	          0.00000000	          1.53753241	          0.00000000	
          2.09100000	         -0.00892517	         -0.00787733	          0.00095090	         -0.00002014	          0.00000000	         -0.00001804	        -28.34962725	        815.36063822	        -50.09727308	          0.53276843	          0.00000000	          0.12843684	          0.00000000	          0.00001875	          0.00000000	          0.00000000	          1.47372574	          0.00000000	
          2.09200000	         -0.00887256	         -0.00871118	          0.00098469	         -0.00001799	          0.00000000	         -0.00001640	        -27.92439483	        813.48177350	        -49.86413315	          0.53301646	          0.00000000	          0.12851708	          0.00000000	          0.00001503	          0.00000000	          0.00000000	          1.41033771	          0.00000000	
          2.09300000	         -0.00879089	         -0.00944121	          0.00101189	         -0.00001596	          0.00000000	         -0.00001483	        -27.50312044	        811.65039814	        -49.63534745	          0.53326207	          0.00000000	          0.12859619	          0.00000000	          0.00001157	          0.00000000	          0.00000000	          1.34734234	          0.00000000	
          2.09400000	         -0.00868296	         -0.01007349	          0.00103296	         -0.00001405	          0.00000000	         -0.00001334	        -27.08569717	        809.86666653	        -49.41115587	          0.53350530	          0.00000000	          0.12867421	          0.00000000	          0.00000836	          0.00000000	          0.00000000	          1.28471446	          0.00000000	
          2.09500000	         -0.00855139	         -0.01061394	          0.00104832	         -0.00001224	          0.00000000	         -0.00001193	        -26.67202162	        808.13070414	        -49.19178554	          0.53374618	          0.00000000	          0.12875115	          0.00000000	          0.00000539	          0.00000000	          0.00000000	          1.22242996	          0.00000000	
          2.09600000	         -0.00839869	         -0.01106834	          0.00105843	         -0.00001054	          0.00000000	         -0.00001060	        -26.26199409	        806.44260666	        -48.97745055	          0.53398477	          0.00000000	          0.12882703	          0.00000000	          0.00000265	          0.00000000	          0.00000000	          1.16046595	          0.00000000	
          2.09700000	         -0.00822723	         -0.01144228	          0.00106367	         -0.00000894	          0.00000000	         -0.00000933	        -25.85551888	        804.80244027	        -48.76835145	          0.53422110	          0.00000000	          0.12890189	          0.00000000	          0.00000014	          0.00000000	          0.00000000	          1.09880095	          0.00000000	
          2.09800000	         -0.00803927	         -0.01174119	          0.00106445	         -0.00000745	          0.00000000	         -0.00000814	        -25.45250448	        803.21024287	        -48.56467479	          0.53445521	          0.00000000	          0.12897575	          0.00000000	         -0.00000217	          0.00000000	          0.00000000	          1.03741506	          0.00000000	
          2.09900000	         -0.00783691	         -0.01197031	          0.00106114	         -0.00000606	          0.00000000	         -0.00000702	        -25.05286389	        801.66602584	        -48.36659255	          0.53468715	          0.00000000	          0.12904862	          0.00000000	         -0.00000426	          0.00000000	          0.00000000	          0.97629010	          0.00000000	
          2.10000000	         -0.00762214	         -0.01213472	          0.00105410	         -0.00000476	          0.00000000	         -0.00000597	        -24.65651485	        800.16977550	        -48.17426184	          0.53491695	          0.00000000	          0.12912054	          0.00000000	         -0.00000617	          0.00000000	          0.00000000	          0.91540970	          0.00000000	
